<?xml version="1.0" encoding="UTF-8" standalone="no"?>
<!DOCTYPE svg PUBLIC "-//W3C//DTD SVG 1.1//EN" "http://www.w3.org/Graphics/SVG/1.1/DTD/svg11.dtd">
<svg width="100%" height="100%" viewBox="0 0 600 283" version="1.1" xmlns="http://www.w3.org/2000/svg" xmlns:xlink="http://www.w3.org/1999/xlink" xml:space="preserve" style="fill-rule:evenodd;clip-rule:evenodd;stroke-linejoin:round;stroke-miterlimit:1.41421;">
    <g transform="matrix(0.1,0,0,-0.1,0,283)">
        <path d="M2390,2810C2390,2785 2403,2812 2239,2486C2165,2337 2065,2146 2017,2061C1632,1382 1241,1015 777,895C729,882 682,866 673,858C660,848 591,845 328,847L0,848L0,424L0,0L750,0L750,400L1080,400L1080,200L1080,0L1190,0L1190,265C1190,435 1186,530 1180,530C1175,530 1170,534 1170,539C1170,544 1227,551 1298,554C1465,563 1771,586 2050,610C2174,621 2289,630 2307,630L2340,630L2340,385C2340,174 2338,140 2325,140C2313,140 2310,127 2310,80L2310,20L2520,20L2520,80C2520,133 2518,140 2501,140C2483,140 2481,150 2478,298C2476,384 2477,463 2479,473C2485,502 2533,520 2605,520C2662,520 2674,517 2695,495C2723,468 2725,447 2713,253C2708,152 2705,140 2688,140C2673,140 2670,132 2670,80L2670,20L2880,20L2880,79C2880,112 2876,140 2872,142C2867,143 2860,263 2856,407L2850,668L2937,676C2996,681 3095,678 3237,666C3649,632 3969,582 4215,512L4315,483L4315,344C4315,268 4311,166 4306,118L4298,30L4440,30L4440,71C4440,94 4433,118 4425,126C4414,138 4410,166 4410,245C4410,343 4411,350 4432,361C4463,378 4534,378 4553,361C4577,342 4578,120 4555,120C4544,120 4540,108 4540,75L4540,30L4690,30L4690,75C4690,100 4686,120 4680,120C4674,120 4670,167 4670,241C4670,332 4673,361 4683,358C4689,356 4741,339 4798,320L4900,286L4900,163L4900,40L4960,40L4960,130C4960,203 4963,220 4975,220C4987,220 4990,203 4990,130L4990,40L5168,42L5345,45L5351,199L5378,189C5393,183 5501,150 5619,114C5808,57 5842,50 5916,50L6000,50L6000,83C6000,116 5999,116 5913,143C5864,159 5718,208 5588,253C5404,316 5350,338 5350,351C5350,373 5330,380 5267,380C5207,381 5184,392 5144,440C5031,575 4950,735 4870,985C4853,1040 4801,1231 4755,1410C4709,1589 4665,1755 4656,1780C4647,1805 4640,1842 4640,1862C4640,1882 4636,1902 4630,1905C4625,1908 4620,1920 4620,1931C4620,1953 4592,1957 4584,1935C4575,1913 4395,1913 4386,1935C4383,1943 4374,1950 4366,1950C4355,1950 4340,1915 4315,1837C4215,1521 4101,1256 4000,1107C3941,1021 3823,904 3785,894C3765,889 3748,897 3705,930C3471,1110 3193,1638 2915,2425C2884,2513 2848,2614 2835,2650C2821,2686 2810,2727 2810,2741C2810,2756 2803,2773 2795,2780C2787,2787 2780,2801 2780,2811C2780,2839 2746,2835 2730,2805C2717,2780 2715,2780 2585,2780C2454,2780 2453,2780 2442,2805C2428,2836 2390,2840 2390,2810ZM2362,2313L2358,2005L2297,1900C2057,1483 1761,1160 1470,998C1390,954 1274,907 1200,890C1170,883 1140,874 1135,869C1129,865 1055,858 970,855L815,849L890,875C998,913 1143,986 1235,1049C1599,1297 1888,1679 2245,2383C2311,2513 2365,2620 2366,2620C2366,2620 2365,2482 2362,2313ZM2650,2606C2650,2604 2633,2565 2612,2520L2574,2437L2543,2516C2526,2559 2514,2598 2517,2603C2521,2610 2650,2613 2650,2606ZM2511,2298C2491,2256 2472,2221 2468,2220C2463,2220 2460,2302 2460,2403L2461,2585L2504,2480L2546,2375L2511,2298ZM2718,2396L2720,2219L2689,2222C2661,2225 2656,2231 2630,2299L2601,2372L2647,2476C2672,2534 2698,2579 2704,2577C2711,2575 2716,2513 2718,2396ZM3014,2016C3232,1468 3445,1094 3641,916C3675,885 3699,860 3694,860C3689,861 3635,867 3573,874L3461,888L3385,950C3216,1088 3066,1300 2912,1618L2836,1775L2829,1910C2825,1984 2820,2161 2817,2303L2813,2561L2882,2369C2919,2264 2979,2105 3014,2016ZM2600,2233C2600,2225 2587,2220 2565,2220L2530,2220L2551,2263L2573,2305L2586,2275C2593,2259 2599,2239 2600,2233ZM2657,2062C2664,2057 2681,2026 2695,1992C2718,1935 2720,1919 2720,1760L2720,1590L2596,1590L2473,1590L2466,1636C2463,1662 2460,1760 2460,1855C2460,2044 2460,2045 2523,2060C2566,2071 2642,2072 2657,2062ZM2352,1399L2347,902L2186,896C1798,881 1440,870 1380,870L1315,870L1371,894C1661,1013 1965,1294 2218,1677C2262,1745 2311,1822 2327,1849C2342,1877 2355,1898 2356,1897C2357,1896 2355,1672 2352,1399ZM4521,1792C4535,1786 4533,1774 4505,1691L4474,1596L4456,1681C4446,1727 4435,1770 4433,1777C4426,1794 4491,1805 4521,1792ZM4285,1155C4169,942 4050,840 3920,841C3826,842 3822,849 3886,899C4009,995 4172,1274 4275,1567L4325,1708L4328,1473L4330,1238L4285,1155ZM4570,1620L4570,1530L4536,1530L4501,1530L4532,1620C4548,1670 4564,1710 4566,1710C4568,1710 4570,1670 4570,1620ZM4434,1555C4439,1535 4437,1530 4420,1530C4402,1530 4400,1536 4401,1608L4402,1685L4415,1632C4422,1603 4431,1568 4434,1555ZM3036,1282C3122,1150 3211,1040 3297,960C3374,889 3374,888 3340,893C3321,896 3203,902 3078,906L2851,913L2846,984C2843,1023 2839,1192 2836,1360L2831,1665L2905,1517C2946,1436 3005,1330 3036,1282ZM4677,1498C4674,1490 4671,1493 4671,1504C4670,1515 4673,1521 4676,1517C4679,1514 4680,1505 4677,1498ZM4830,945C4887,770 4950,628 5016,529C5046,484 5068,445 5065,442C5063,439 5027,453 4987,473C4831,546 4755,654 4721,845C4715,878 4706,997 4700,1110C4695,1223 4688,1353 4685,1400L4680,1485L4734,1280C4764,1167 4807,1017 4830,945ZM2712,1400C2728,1381 2730,1358 2730,1221C2730,1135 2727,1028 2723,983L2717,900L2594,900L2470,900L2470,1149C2470,1432 2467,1421 2554,1430C2630,1438 2691,1426 2712,1400ZM4509,1268C4532,1187 4550,1116 4550,1110C4550,1104 4521,1100 4475,1100L4400,1100L4400,1185C4400,1247 4405,1283 4421,1322C4433,1351 4446,1386 4451,1399C4456,1412 4462,1421 4464,1419C4466,1417 4486,1349 4509,1268ZM4564,1404C4576,1392 4580,1368 4579,1297L4578,1205L4556,1285C4518,1417 4518,1420 4534,1420C4542,1420 4556,1413 4564,1404ZM4323,922C4317,732 4317,730 4296,737C4284,740 4219,758 4150,775L4025,807L4070,830C4130,861 4227,960 4281,1048C4305,1087 4325,1118 4326,1117C4327,1116 4326,1028 4323,922ZM4564,974C4577,961 4580,931 4580,800L4580,641L4498,671C4453,688 4415,702 4414,703C4413,704 4410,763 4409,834C4406,951 4407,963 4425,976C4451,995 4544,994 4564,974ZM4774,562C4774,561 4748,571 4717,585L4660,610L4660,795L4718,680C4749,617 4775,564 4774,562ZM1003,533C996,531 982,531 973,533C963,536 969,538 985,538C1002,538 1009,536 1003,533ZM1098,533C1088,531 1070,531 1058,533C1045,535 1053,537 1075,537C1097,538 1107,536 1098,533Z" style="fill:#fffede;fill-rule:nonzero;"/>
    </g>
</svg>
