<?xml version="1.0" encoding="UTF-8" standalone="no"?>
<!DOCTYPE svg PUBLIC "-//W3C//DTD SVG 1.1//EN" "http://www.w3.org/Graphics/SVG/1.1/DTD/svg11.dtd">
<svg width="100%" height="100%" viewBox="0 0 1125 756" version="1.1" xmlns="http://www.w3.org/2000/svg" xmlns:xlink="http://www.w3.org/1999/xlink" xml:space="preserve" style="fill-rule:evenodd;clip-rule:evenodd;stroke-linejoin:round;stroke-miterlimit:1.41421;">
    <g transform="matrix(0.75,0,0,0.75,0,0)">
        <g id="path2985" transform="matrix(1,0,0,1,-22.5,-22.5)">
            <path d="M773.804,202.619C564.318,202.619 394.491,355.504 394.491,544.088C394.491,687.291 492.417,809.9 631.273,860.619L631.273,1018.62L681.741,1018.62L681.741,810.026L708.648,810.026L708.648,1018.62L742.304,1018.62L742.304,826.838L789.398,826.838L789.398,1018.62L831.46,1018.62L831.46,804.994L863.398,804.994L863.398,1018.62L905.46,1018.62L905.46,852.088L947.523,852.088L947.523,1018.62L997.991,1018.62L997.991,819.526C1092.04,757.383 1153.09,657.158 1153.09,544.088C1153.09,355.504 983.29,202.619 773.804,202.619L773.804,202.619ZM650.991,335.494C716.485,335.494 769.585,388.215 769.585,453.244C769.585,518.273 716.485,570.994 650.991,570.994C585.498,570.994 532.398,518.273 532.398,453.244C532.398,388.215 585.498,335.494 650.991,335.494ZM957.741,385.963C1003.13,385.963 1039.93,423.608 1039.93,470.057C1039.93,516.506 1003.13,554.151 957.741,554.151C912.348,554.151 875.554,516.506 875.554,470.057C875.554,423.608 912.348,385.963 957.741,385.963L957.741,385.963ZM838.179,581.276L910.523,688.932L769.21,685.557L838.179,581.276Z" style="fill:#fffede;"/>
        </g>
        <g id="path3012" transform="matrix(1,0,0,1,-22.5,-22.5)">
            <path d="M1447.92,49.174C1428.53,20.644 1388.62,13.944 1358.79,34.216C1328.96,54.487 1320.51,94.062 1339.89,122.591C1340.07,122.85 1340.27,123.086 1340.45,123.341L1097.01,319.908L1124.05,363.672L1389.23,195.171C1389.27,195.244 1389.32,195.315 1389.37,195.387C1408.76,223.917 1448.65,230.586 1478.48,210.314L1479.4,209.685C1508.53,189.178 1516.55,150.153 1497.39,121.97C1487.74,107.767 1473,98.989 1456.95,96.243C1460.31,80.3 1457.56,63.365 1447.92,49.174L1447.92,49.174Z" style="fill:#fffede;"/>
        </g>
        <g id="path3019" transform="matrix(1,0,0,1,-22.5,-22.5)">
            <path d="M85.978,70.17C103.766,40.616 143.247,31.727 174.145,50.325C205.042,68.922 215.669,107.97 197.881,137.525C197.719,137.793 197.533,138.039 197.368,138.304L451.265,321.161L426.679,366.347L152.625,212.713C152.581,212.788 152.536,212.861 152.491,212.936C134.702,242.491 95.241,251.348 64.343,232.75L63.384,232.173C33.169,213.302 23.015,174.777 40.588,145.582C49.444,130.868 63.677,121.292 79.547,117.666C75.319,101.932 77.129,84.871 85.978,70.17L85.978,70.17Z" style="fill:#fffede;"/>
        </g>
        <g id="path3021" transform="matrix(1,0,0,1,-22.5,-22.5)">
            <path d="M1469.3,990.029C1451.85,1019.79 1412.48,1029.13 1381.37,1010.9C1350.26,992.658 1339.17,953.736 1356.62,923.977C1356.78,923.707 1356.96,923.459 1357.12,923.192L1101.12,743.292L1125.18,697.824L1401,848.269C1401.05,848.194 1401.09,848.12 1401.13,848.044C1418.58,818.285 1457.93,808.971 1489.05,827.209L1490.01,827.775C1520.44,846.294 1531.04,884.699 1513.81,914.096C1505.12,928.911 1491,938.652 1475.18,942.462C1479.59,958.146 1477.97,975.226 1469.3,990.029L1469.3,990.029Z" style="fill:#fffede;"/>
        </g>
        <g id="path3023" transform="matrix(1,0,0,1,-22.5,-22.5)">
            <path d="M82.738,1003.36C102.221,1031.82 142.153,1038.39 171.913,1018.02C201.672,997.652 210.001,958.05 190.517,929.585C190.34,929.326 190.14,929.091 189.96,928.836L432.748,731.469L405.566,687.795L140.949,857.167C140.9,857.095 140.852,857.024 140.802,856.952C121.318,828.486 81.407,821.948 51.648,842.318L50.724,842.95C21.662,863.553 13.775,902.605 33.022,930.724C42.722,944.896 57.49,953.625 73.545,956.318C70.243,972.272 73.046,989.198 82.738,1003.36L82.738,1003.36Z" style="fill:#fffede;"/>
        </g>
    </g>
</svg>
