<?xml version="1.0" encoding="UTF-8" standalone="no"?>
<!DOCTYPE svg PUBLIC "-//W3C//DTD SVG 1.1//EN" "http://www.w3.org/Graphics/SVG/1.1/DTD/svg11.dtd">
<svg width="100%" height="100%" viewBox="0 0 95 56" version="1.1" xmlns="http://www.w3.org/2000/svg" xmlns:xlink="http://www.w3.org/1999/xlink" xml:space="preserve" style="fill-rule:evenodd;clip-rule:evenodd;stroke-linejoin:round;stroke-miterlimit:1.41421;">
    <g transform="matrix(0.75,0,0,0.75,0,0)">
        <g transform="matrix(6.12323e-17,1,-1,6.12323e-17,99.9976,-14.7371)">
            <path d="M86.963,41.095C81.867,14.294 100.22,-6.169 77.506,-19.969C51.709,-35.644 8.888,-15.726 15.403,5.276C20.956,23.176 78.884,25.773 83.048,17.263C81.59,24.325 39.508,75.154 59.981,72.664C53.787,75.012 59.179,78.284 48.621,72.532C38.601,67.424 37.32,78.721 28.629,82.14C27.856,82.443 27.477,83.314 27.78,84.09C27.993,84.628 28.486,84.98 29.028,85.033C29.259,85.055 29.497,85.027 29.726,84.939C37.605,81.836 38.015,70.498 47.259,75.211C57.049,80.824 46.658,80.525 53.855,81.461C49.174,90.106 34.219,91.645 26.87,90.629C22.603,90.039 21.684,91.776 25.496,94.072C58.522,113.959 94.478,80.623 86.963,41.095Z" style="fill:#fffede;"/>
        </g>
    </g>
</svg>
