<?xml version="1.0" encoding="UTF-8" standalone="no"?>
<!DOCTYPE svg PUBLIC "-//W3C//DTD SVG 1.1//EN" "http://www.w3.org/Graphics/SVG/1.1/DTD/svg11.dtd">
<svg width="100%" height="100%" viewBox="0 0 66 63" version="1.1" xmlns="http://www.w3.org/2000/svg" xmlns:xlink="http://www.w3.org/1999/xlink" xml:space="preserve" style="fill-rule:evenodd;clip-rule:evenodd;stroke-linejoin:round;stroke-miterlimit:1.41421;">
    <g transform="matrix(0.75,0,0,0.75,0,0)">
        <g transform="matrix(6.12323e-17,1,-1,6.12323e-17,87.0076,0.00583456)">
            <path d="M24.84,72.567C22.822,69.25 23.903,68.828 27.276,70.45C36.701,74.986 49.825,71.836 51.309,63.001C49.378,62.115 47.765,60.761 46.551,59.021C40.17,59.065 31.45,57.369 24.626,55.497C15.709,54.257 7.722,56.223 2.143,61.039C1.98,61.177 1.792,61.269 1.598,61.316C1.137,61.426 0.634,61.279 0.306,60.895C-0.16,60.341 -0.097,59.515 0.45,59.041C6.604,53.736 15.316,51.551 24.983,52.898C32.772,54.203 39.978,51.928 44.203,48.657C44.31,47.48 44.505,46.255 44.819,44.975C5.306,40.781 5.933,5.867 34.385,0.615C57.068,-3.572 79.915,13.606 82.765,43.854C86.625,84.83 42.314,101.284 24.84,72.567Z" style="fill:#fffede;"/>
        </g>
    </g>
</svg>
