<?xml version="1.0" encoding="UTF-8" standalone="no"?>
<!DOCTYPE svg PUBLIC "-//W3C//DTD SVG 1.1//EN" "http://www.w3.org/Graphics/SVG/1.1/DTD/svg11.dtd">
<svg width="100%" height="100%" viewBox="0 0 176 159" version="1.1" xmlns="http://www.w3.org/2000/svg" xmlns:xlink="http://www.w3.org/1999/xlink" xml:space="preserve" style="fill-rule:evenodd;clip-rule:evenodd;stroke-linejoin:round;stroke-miterlimit:1.41421;">
    <g transform="matrix(1,0,0,1,7.99557,-8.01436)">
        <g transform="matrix(6.12323e-17,1,-1,6.12323e-17,167.025,7.9932)">
            <path d="M151.155,29.621C136.724,2.488 106.409,-9.61 71.702,8.842C36.903,27.346 34.276,53.097 54.456,88.833C54.421,88.842 54.385,88.849 54.349,88.86C52.092,89.562 50.834,91.959 51.535,94.214C52.173,96.261 54.21,97.48 56.27,97.16C57.549,105.987 63.768,112.123 72.466,115.512C72.538,114.555 72.822,113.619 73.324,112.769C74.185,111.312 75.561,110.279 77.198,109.858C80.579,108.99 84.041,111.033 84.91,114.41C85.309,115.959 85.924,117.331 86.721,118.499C90.448,118.737 94.333,118.63 98.272,118.169L98.275,118.166C107.621,117.069 117.26,113.995 125.75,108.898C127.312,107.959 127.809,109.933 126.753,110.566C117.972,115.841 107.787,119.175 97.491,120.22L97.491,120.219L96.508,122.799C98.791,122.544 101.135,121.657 103.284,120.182C103.727,119.878 104.334,119.99 104.639,120.434C104.944,120.878 104.83,121.484 104.387,121.788C100.032,124.777 94.916,125.62 90.701,124.042C86.901,122.617 84.175,119.37 83.023,114.896C82.421,112.557 80.024,111.144 77.683,111.745C76.55,112.037 75.598,112.753 75.003,113.759C74.407,114.767 74.24,115.946 74.532,117.079C76.391,124.299 81.163,129.828 87.624,132.249C89.991,133.134 92.515,133.584 95.128,133.584C100.078,133.584 104.996,132.005 109.351,129.016C109.794,128.711 110.401,128.823 110.705,129.267C111.01,129.71 110.897,130.318 110.454,130.622C105.772,133.834 100.473,135.532 95.128,135.532C93.984,135.532 92.856,135.45 91.747,135.292L90.68,138.093C90.504,138.003 90.324,137.911 90.152,137.824C83.687,134.528 78.582,131.924 70.91,134.102C66.471,135.361 61.492,132.347 59.812,127.384C56.958,118.955 51.806,116.249 41.433,117.736C33.605,118.855 28.108,116.529 26.728,111.505C26.042,109.01 24.207,106.951 21.423,105.551C16.229,102.939 8.069,102.875 1.576,105.395C0.322,105.881 -0.3,107.293 0.187,108.545C0.674,109.8 2.087,110.42 3.339,109.936C8.558,107.909 15.242,107.895 19.234,109.902C20.774,110.677 21.716,111.649 22.031,112.797C24.093,120.297 31.792,124.037 42.124,122.557C51.029,121.282 53.353,123.497 55.197,128.945C57.696,136.328 65.341,140.741 72.24,138.786C78.071,137.132 81.786,139.026 87.938,142.162C88.264,142.327 88.599,142.498 88.935,142.669L88.412,144.043C86.963,143.887 85.508,143.81 84.063,143.831C76.711,143.93 70.352,146.342 65.327,150.856C61.766,148.641 57.074,149.69 54.801,153.23C52.508,156.802 53.544,161.555 57.116,163.847L58.929,165.011C58.908,163.465 59.295,161.937 60.091,160.564C62.179,156.965 66.488,155.391 70.358,156.709C74.267,151.875 82.395,146.726 92.364,145.672C99.042,144.967 109.036,145.921 118.735,154.469C119.139,154.825 119.178,155.441 118.822,155.843C118.466,156.247 117.849,156.286 117.447,155.931C117.442,155.925 117.436,155.923 117.432,155.917C108.267,147.849 98.854,146.945 92.568,147.61C82.833,148.638 74.805,153.955 71.466,158.46L71.002,159.086L70.289,158.772C67.156,157.388 63.496,158.577 61.777,161.543C60.877,163.093 60.634,164.902 61.094,166.634C61.555,168.367 62.663,169.816 64.213,170.715L70.074,174.114C71.443,174.909 73.055,175.194 74.614,174.918C74.911,174.866 75.201,174.794 75.48,174.703C77.285,174.129 78.767,172.813 79.552,171.091C80.859,168.22 84.67,161.381 91.806,159.856C97.035,158.74 102.676,160.804 108.566,165.995C108.707,166.516 109.009,166.966 108.653,167.37C108.298,167.773 107.682,167.813 107.278,167.457C101.888,162.707 96.831,160.79 92.244,161.755C100.754,167.933 114.092,175.476 122.762,169.908C138.317,159.919 146.598,122.282 148.272,102.977C148.648,98.646 148.5,94.34 147.495,90.522C162.537,71.686 161.855,49.73 151.155,29.621ZM78.429,82.29C77.508,85.523 75.591,87.743 73.032,88.541C72.359,88.75 71.668,88.855 70.967,88.855C68.997,88.855 66.952,88.039 65.037,86.462C64.622,86.12 64.563,85.505 64.906,85.09C65.247,84.675 65.861,84.617 66.276,84.958C68.348,86.665 70.542,87.277 72.451,86.681C74.363,86.086 75.819,84.337 76.556,81.755C76.703,81.239 77.241,80.939 77.759,81.086C78.277,81.233 78.577,81.772 78.429,82.29ZM135.786,64.39C135.042,67.579 132.931,70.512 129.684,72.872C129.51,72.997 129.309,73.057 129.111,73.057C128.81,73.057 128.513,72.918 128.323,72.656C128.007,72.221 128.103,71.611 128.538,71.296C131.401,69.215 133.253,66.674 133.889,63.948C134.473,61.446 133.962,58.921 132.449,56.842C130.894,54.7 128.74,53.442 126.221,53.204C123.469,52.943 120.449,53.939 117.493,56.085C117.058,56.402 116.448,56.305 116.132,55.87C115.816,55.434 115.913,54.826 116.349,54.509C119.694,52.081 123.175,50.958 126.404,51.264C129.454,51.552 132.16,53.126 134.026,55.697C135.876,58.242 136.501,61.329 135.786,64.39Z" style="fill:#fffede;"/>
        </g>
    </g>
</svg>
