<?xml version="1.0" encoding="UTF-8" standalone="no"?>
<!DOCTYPE svg PUBLIC "-//W3C//DTD SVG 1.1//EN" "http://www.w3.org/Graphics/SVG/1.1/DTD/svg11.dtd">
<svg width="100%" height="100%" viewBox="0 0 100 88" version="1.1" xmlns="http://www.w3.org/2000/svg" xmlns:xlink="http://www.w3.org/1999/xlink" xml:space="preserve" style="fill-rule:evenodd;clip-rule:evenodd;stroke-linejoin:round;stroke-miterlimit:1.41421;">
    <g transform="matrix(1,0,0,1,6.02662,-6.00139)">
        <g transform="matrix(6.12323e-17,1,-1,6.12323e-17,93.971,6.02576)">
            <path d="M86.963,41.095C81.867,14.294 61.79,-3.082 35.449,0.455C13.358,3.424 -0.927,19.641 5.588,40.643C11.141,58.543 36.355,54.768 40.519,46.258C39.061,53.32 39.508,75.154 59.981,72.664C53.787,75.012 40.504,74.413 29.946,68.661C19.926,63.553 9.62,62.626 0.929,66.045C0.156,66.348 -0.223,67.219 0.08,67.995C0.293,68.533 0.786,68.885 1.328,68.938C1.559,68.96 1.797,68.932 2.026,68.844C9.905,65.741 19.34,66.627 28.584,71.34C38.374,76.953 46.658,80.525 53.855,81.461C49.174,90.106 34.219,91.645 26.87,90.629C22.603,90.039 21.684,91.776 25.496,94.072C58.522,113.959 94.478,80.623 86.963,41.095Z" style="fill:#fffede;"/>
        </g>
    </g>
</svg>
