<?xml version="1.0" encoding="UTF-8" standalone="no"?>
<!DOCTYPE svg PUBLIC "-//W3C//DTD SVG 1.1//EN" "http://www.w3.org/Graphics/SVG/1.1/DTD/svg11.dtd">
<svg width="100%" height="100%" viewBox="0 0 190 136" version="1.1" xmlns="http://www.w3.org/2000/svg" xmlns:xlink="http://www.w3.org/1999/xlink" xml:space="preserve" style="fill-rule:evenodd;clip-rule:evenodd;stroke-linejoin:round;stroke-miterlimit:1.41421;">
    <g transform="matrix(0.75,0,0,0.75,0,0)">
        <g transform="matrix(6.12323e-17,1,-1,6.12323e-17,242.015,-0.0236877)">
            <path d="M177.506,29.165C174.406,24.169 170.208,13.316 166.238,9.411C162.79,6.021 150.719,11.062 146.707,8.603C136.709,2.475 125.091,-0.607 112.511,0.135C106.46,0.491 90.444,-12.339 84.021,-10.127C77.927,-8.028 58.154,2.304 51.855,6.225C48.4,8.376 68.375,17.228 65.264,19.382C57.757,24.58 51.42,29.867 47.063,35.625C44.55,38.946 15.963,45.827 14.922,49.535C11.656,61.177 19.097,93.888 25.279,108.053C28.168,114.673 56.694,99.625 61.447,106.871C61.406,106.886 61.364,106.896 61.323,106.912C58.771,107.9 49.022,113.368 50.007,115.924C50.905,118.244 56.401,134.582 58.754,134.052C65.794,142.954 73.425,132.594 83.141,135.962C83.322,132.547 85.546,129.422 88.98,128.286C89.852,127.997 90.754,127.853 91.661,127.853C95.351,127.853 98.609,130.211 99.77,133.721C100.42,135.693 101.384,137.363 102.601,138.67C106.437,138.569 110.383,138.148 114.355,137.407L114.355,137.408C125.068,135.41 135.965,131.1 145.378,124.535C147.109,123.327 147.838,125.573 146.667,126.39C136.932,133.179 125.426,137.834 113.612,139.845L113.611,139.845C113.435,140.424 113.257,141.006 113.081,141.582C114.995,141.144 116.899,140.295 118.664,139.062C119.175,138.705 119.874,138.81 120.261,139.3C120.458,139.55 120.545,139.872 120.497,140.188C120.453,140.495 120.285,140.768 120.037,140.952C120.029,140.957 120.022,140.961 120.013,140.967C118.989,141.685 117.922,142.286 116.835,142.774C116.781,142.798 116.726,142.826 116.669,142.85C116.462,142.941 116.252,143.024 116.043,143.107C115.953,143.141 115.863,143.179 115.773,143.214C115.582,143.284 115.388,143.349 115.196,143.414C115.086,143.451 114.977,143.489 114.867,143.524C114.686,143.58 114.504,143.632 114.322,143.682C114.2,143.715 114.078,143.75 113.955,143.781C113.782,143.824 113.61,143.864 113.435,143.901C113.303,143.929 113.172,143.958 113.04,143.983C112.874,144.014 112.709,144.044 112.543,144.069C112.403,144.092 112.264,144.112 112.124,144.13C111.965,144.152 111.806,144.17 111.648,144.186C111.501,144.2 111.354,144.212 111.207,144.222C111.055,144.231 110.904,144.242 110.753,144.249C110.599,144.254 110.445,144.254 110.293,144.256C110.149,144.256 110.005,144.259 109.862,144.254C109.7,144.251 109.54,144.241 109.38,144.231C109.246,144.223 109.11,144.218 108.976,144.206C108.805,144.19 108.635,144.169 108.464,144.147C108.343,144.131 108.221,144.118 108.101,144.1C107.909,144.069 107.719,144.031 107.53,143.993C107.432,143.974 107.335,143.959 107.237,143.937C106.951,143.871 106.667,143.799 106.387,143.714C103.63,142.886 101.32,141.145 99.622,138.68C99.208,138.078 98.832,137.433 98.492,136.75C98.467,136.7 98.444,136.649 98.419,136.599C98.288,136.324 98.163,136.044 98.043,135.757C98.009,135.673 97.973,135.592 97.938,135.508C97.802,135.166 97.67,134.817 97.552,134.457C96.476,131.197 92.971,129.433 89.713,130.507C89.525,130.568 89.343,130.641 89.165,130.718C89.107,130.744 89.051,130.774 88.994,130.801C88.876,130.857 88.76,130.914 88.648,130.977C88.583,131.012 88.52,131.052 88.456,131.09C88.356,131.15 88.258,131.213 88.161,131.279C88.098,131.322 88.035,131.366 87.974,131.411C87.882,131.479 87.794,131.55 87.705,131.623C87.648,131.672 87.589,131.718 87.533,131.769C87.437,131.853 87.345,131.946 87.255,132.037C87.161,132.131 87.074,132.229 86.987,132.328C86.926,132.399 86.862,132.469 86.805,132.543C86.739,132.625 86.678,132.711 86.617,132.797C86.575,132.857 86.533,132.915 86.493,132.976C86.43,133.07 86.371,133.167 86.315,133.263C86.284,133.317 86.255,133.369 86.225,133.422C86.166,133.53 86.11,133.639 86.057,133.749C86.04,133.785 86.026,133.822 86.009,133.857C85.753,134.426 85.582,135.033 85.506,135.661C85.504,135.673 85.502,135.686 85.501,135.699C85.482,135.852 85.472,136.007 85.465,136.162C85.465,136.182 85.464,136.2 85.464,136.218C85.459,136.376 85.459,136.535 85.467,136.693L85.467,136.695C85.492,137.247 73.875,148.031 74.057,148.582C76.884,157.15 94.812,153.216 102.824,155.62C105.785,156.511 108.886,156.836 111.997,156.626C112.351,156.602 112.705,156.57 113.059,156.533C113.179,156.52 113.298,156.503 113.419,156.488C113.652,156.459 113.885,156.432 114.119,156.398C114.265,156.378 114.411,156.351 114.556,156.326C114.763,156.294 114.97,156.262 115.176,156.223C115.334,156.195 115.49,156.16 115.646,156.129C115.841,156.09 116.036,156.052 116.231,156.008C116.394,155.971 116.559,155.931 116.721,155.891C116.908,155.845 117.095,155.801 117.28,155.752C117.449,155.708 117.616,155.66 117.783,155.613C117.964,155.561 118.145,155.51 118.325,155.455C118.495,155.404 118.666,155.349 118.836,155.295C119.011,155.238 119.187,155.181 119.36,155.12C119.534,155.061 119.707,155 119.88,154.936C120.05,154.874 120.22,154.811 120.389,154.747C120.563,154.68 120.738,154.61 120.914,154.54C121.079,154.472 121.243,154.403 121.408,154.333C121.584,154.257 121.76,154.181 121.936,154.103C122.096,154.031 122.256,153.956 122.415,153.881C122.594,153.797 122.771,153.714 122.947,153.627C123.102,153.552 123.257,153.472 123.411,153.392C123.59,153.302 123.768,153.209 123.947,153.113C124.094,153.034 124.243,152.949 124.391,152.867C124.571,152.766 124.752,152.665 124.931,152.56C125.073,152.478 125.212,152.393 125.353,152.307C125.536,152.195 125.72,152.085 125.902,151.97C126.034,151.887 126.162,151.8 126.292,151.715C126.481,151.592 126.67,151.469 126.857,151.342C126.969,151.265 127.077,151.186 127.188,151.108C127.391,150.965 127.594,150.824 127.794,150.677C127.799,150.674 127.804,150.671 127.808,150.669C128.31,150.297 129.016,150.392 129.403,150.883L129.425,150.911C129.616,151.154 129.702,151.464 129.661,151.771C129.62,152.078 129.457,152.355 129.208,152.539C124.076,156.337 118.203,158.551 112.154,158.959C111.497,159.004 110.832,159.025 110.177,159.025C109.375,159.025 108.579,158.988 107.787,158.922C107.557,159.675 107.332,160.413 107.11,161.142C106.909,161.057 106.703,160.97 106.507,160.884C98.782,157.574 92.68,154.96 83.989,158.077C78.954,159.881 72.97,156.781 70.643,151.167C66.69,141.634 60.525,138.905 48.658,141.432C39.704,143.341 33.17,141.075 31.184,135.367C30.197,132.534 27.918,130.293 24.592,128.889C18.387,126.27 8.953,126.833 1.65,130.255C0.239,130.916 -0.37,132.599 0.29,134.011C0.951,135.424 2.631,136.034 4.041,135.372C9.912,132.621 17.634,132.083 22.401,134.095C24.242,134.872 25.404,135.926 25.858,137.228C28.824,145.75 38.012,149.478 49.831,146.959C60.021,144.789 62.878,147.172 65.433,153.332C68.895,161.686 78.072,166.199 85.889,163.396C92.498,161.026 96.937,162.928 104.288,166.08C104.667,166.241 105.058,166.408 105.451,166.575C105.215,167.345 104.987,168.093 104.765,168.818C113.134,168.534 122.278,171.621 131.422,177.852C131.679,178.027 131.855,178.297 131.91,178.604C131.965,178.909 131.897,179.226 131.718,179.48C131.348,180.005 130.626,180.138 130.093,179.776C130.091,179.776 130.088,179.776 130.085,179.774C115.647,169.956 101.232,168.398 91.359,175.656C87.134,178.761 62.062,160.2 65.031,179.551L58.037,190.822C53.432,190.756 65.753,210.329 65.644,214.939L65.644,214.94C65.591,217.178 66.43,219.344 67.978,220.958C69.524,222.573 71.649,223.504 73.882,223.544L92.282,223.877C92.84,223.888 93.39,223.845 93.928,223.749C96.005,223.38 97.89,222.235 99.176,220.51C100.795,218.339 101.267,215.517 100.445,212.936C96.037,199.095 98.136,191.493 101.272,189.186C104.353,186.924 111.414,187.433 120.427,193.489C120.662,193.688 120.858,193.93 120.914,194.236C120.972,194.543 120.902,194.86 120.723,195.115C120.354,195.639 119.635,195.771 119.104,195.414C111.468,190.283 106.638,190.145 104.872,190.337C103.937,190.438 103.17,190.693 102.653,191.074C100.77,192.458 98.349,198.659 102.671,212.225C103.72,215.519 103.113,219.14 101.046,221.91C99.411,224.103 97.028,225.573 94.337,226.052C94.099,226.094 93.86,226.127 93.621,226.154C93.162,226.203 92.696,226.224 92.235,226.215L86.935,226.12C82.872,228.184 81.19,233.127 83.169,237.25L83.17,237.25C84.137,239.269 85.867,240.815 87.978,241.55C90.088,242.284 92.404,242.145 94.411,241.163L110.954,233.082C111.454,232.839 130.144,235.436 130.579,235.105C132.262,233.83 136.182,227.625 136.545,225.503C137.003,222.833 115.164,221.546 113.259,219.621C103.051,209.299 102.945,201.725 105.299,198.623C106.78,196.67 109.357,195.141 113.708,195.138C120.794,198.289 130.439,218.173 137.999,217.077C141.546,216.563 152.163,208.67 154.83,206.689C156.659,205.33 153.381,192.198 154.976,190.192C158.333,185.97 160.986,180.464 163.082,174.266C163.827,172.065 153.118,169.775 153.729,167.425C154.695,163.711 154.166,159.205 154.841,155.293C155.367,152.24 168.531,149.8 168.909,146.74C169.46,142.273 169.866,137.851 170.166,133.63C170.633,127.045 178.256,121.109 178.352,116.089C178.402,113.459 170.874,110.687 170.547,108.175C170.247,105.87 169.768,103.648 169.07,101.57C183.211,81.152 182.81,58.849 172.769,38.383C171.513,35.822 179.055,31.662 177.506,29.165Z" style="fill:#fffede;"/>
        </g>
    </g>
</svg>
