<?xml version="1.0" standalone="no"?>
<!DOCTYPE svg PUBLIC "-//W3C//DTD SVG 20010904//EN"
 "http://www.w3.org/TR/2001/REC-SVG-20010904/DTD/svg10.dtd">
<svg version="1.0" xmlns="http://www.w3.org/2000/svg"
 width="594.000000pt" height="594.000000pt" viewBox="0 0 594.000000 594.000000"
 preserveAspectRatio="xMidYMid meet">
<metadata>
Created by potrace 1.13, written by Peter Selinger 2001-2015
</metadata>
<g transform="translate(0.000000,594.000000) scale(0.100000,-0.100000)"
fill="#FFFEDE" stroke="none">
<path d="M2665 5929 c-560 -58 -1100 -278 -1547 -630 -142 -112 -405 -380
-510 -520 -343 -456 -541 -960 -598 -1519 -12 -122 -12 -458 0 -580 59 -575
275 -1110 631 -1562 112 -142 380 -405 520 -510 456 -343 960 -541 1519 -598
122 -12 458 -12 580 0 575 59 1110 275 1562 631 142 112 405 380 510 520 343
456 541 960 598 1519 5 52 10 183 10 290 0 203 -9 317 -36 485 -79 490 -291
968 -605 1367 -112 142 -380 405 -520 510 -456 343 -960 541 -1519 598 -112
11 -481 11 -595 -1z m530 -359 c223 -21 471 -75 661 -145 122 -45 393 -177
494 -241 323 -205 629 -511 834 -834 64 -101 196 -372 241 -494 97 -263 155
-597 155 -886 0 -289 -58 -623 -155 -886 -45 -122 -177 -393 -241 -494 -205
-323 -511 -629 -834 -834 -101 -64 -372 -196 -494 -241 -263 -97 -597 -155
-886 -155 -289 0 -623 58 -886 155 -122 45 -393 177 -494 241 -323 205 -629
511 -834 834 -64 101 -196 372 -241 494 -97 263 -155 597 -155 886 0 289 58
623 155 886 45 122 177 393 241 494 205 323 511 629 834 834 101 64 372 196
494 241 182 67 442 125 646 144 126 12 340 12 465 1z"/>
<path d="M2176 4896 c-88 -51 -166 -103 -174 -114 -27 -41 -32 -93 -13 -137
29 -65 530 -928 554 -953 25 -27 86 -47 119 -39 12 4 93 46 178 95 256 147
255 143 57 488 -79 137 -204 354 -278 483 -146 255 -160 271 -239 271 -38 -1
-69 -15 -204 -94z"/>
<path d="M1813 4577 c-216 -137 -310 -248 -348 -409 -19 -81 -19 -301 0 -434
105 -743 620 -1720 1225 -2325 238 -238 456 -391 630 -440 80 -23 209 -25 294
-3 65 16 299 124 310 143 7 10 -519 936 -550 970 -11 12 -18 12 -51 -2 -92
-41 -199 -39 -309 5 -340 137 -693 694 -720 1138 -11 170 32 298 127 384 l50
45 -283 490 c-156 270 -285 491 -288 490 -3 0 -42 -24 -87 -52z"/>
<path d="M3740 2449 c-294 -167 -309 -179 -312 -259 -1 -44 -25 1 291 -548
339 -591 300 -563 572 -406 110 64 171 105 182 124 22 36 22 102 1 143 -22 42
-488 850 -522 904 -49 77 -123 92 -212 42z"/>
</g>
</svg>
