<?xml version="1.0" encoding="UTF-8" standalone="no"?>
<!DOCTYPE svg PUBLIC "-//W3C//DTD SVG 1.1//EN" "http://www.w3.org/Graphics/SVG/1.1/DTD/svg11.dtd">
<svg width="100%" height="100%" viewBox="0 0 851 379" version="1.1" xmlns="http://www.w3.org/2000/svg" xmlns:xlink="http://www.w3.org/1999/xlink" xml:space="preserve" style="fill-rule:evenodd;clip-rule:evenodd;stroke-linejoin:round;stroke-miterlimit:1.41421;">
    <g transform="matrix(0.75,0,0,0.75,0,0)">
        <g transform="matrix(1,0,0,1,-301.593,-118.981)">
            <path d="M451.127,569.915L451.127,266.85C394.733,310.145 356.766,331.792 337.228,331.792C327.903,331.792 319.633,328.073 312.417,320.636C305.201,313.198 301.593,304.594 301.593,294.825C301.593,283.502 305.145,275.176 312.25,269.847C319.355,264.519 331.9,257.636 349.884,249.199C376.749,236.543 398.23,223.222 414.327,209.234C430.423,195.247 444.689,179.594 457.122,162.276C469.555,144.958 477.659,134.3 481.434,130.304C485.208,126.308 492.313,124.309 502.748,124.309C514.516,124.309 523.952,128.861 531.057,137.964C538.161,147.067 541.714,159.611 541.714,175.597L541.714,556.926C541.714,601.553 526.505,623.867 496.088,623.867C482.544,623.867 471.665,619.315 463.45,610.212C455.235,601.109 451.127,587.677 451.127,569.915Z" style="fill:#fffede;fill-rule:nonzero;"/>
            <path d="M1036.94,376.086C1036.94,412.499 1034.72,443.804 1030.28,470.003C1025.84,496.202 1017.63,519.959 1005.64,541.273C990.539,567.473 971,587.677 947.022,601.886C923.043,616.096 896.4,623.201 867.092,623.201C833.344,623.201 803.093,613.654 776.339,594.56C749.585,575.465 729.436,549.044 715.893,515.296C709.01,496.868 703.959,476.498 700.74,454.184C697.52,431.87 695.911,407.725 695.911,381.748C695.911,348.222 697.687,318.027 701.239,291.162C704.792,264.297 710.342,241.206 717.891,221.89C730.991,189.918 750.029,165.551 775.007,148.788C799.985,132.025 829.792,123.643 864.428,123.643C887.297,123.643 908.056,127.362 926.706,134.8C945.356,142.238 961.731,153.117 975.829,167.438C989.928,181.758 1001.86,199.465 1011.63,220.557C1028.51,257.192 1036.94,309.035 1036.94,376.086ZM945.689,369.426C945.689,328.795 943.247,295.547 938.363,269.681C933.478,243.815 925.263,224.276 913.718,211.066C902.172,197.855 886.187,191.25 865.76,191.25C836.453,191.25 816.082,206.015 804.648,235.544C793.213,265.074 787.496,310.589 787.496,372.09C787.496,413.831 789.938,448.023 794.823,474.666C799.708,501.309 807.923,521.458 819.468,535.112C831.013,548.767 846.666,555.594 866.426,555.594C886.853,555.594 902.838,548.489 914.384,534.28C925.929,520.07 934.033,499.755 938.696,473.334C943.358,446.913 945.689,412.277 945.689,369.426Z" style="fill:#fffede;fill-rule:nonzero;"/>
            <path d="M1342.67,582.237L1262.41,450.354L1213.12,496.979L1213.12,569.249C1213.12,586.789 1208.51,600.277 1199.3,609.713C1190.08,619.149 1179.48,623.867 1167.49,623.867C1153.51,623.867 1142.52,619.204 1134.52,609.879C1126.53,600.554 1122.53,586.789 1122.53,568.583L1122.53,180.926C1122.53,160.722 1126.42,145.346 1134.19,134.8C1141.96,124.254 1153.06,118.981 1167.49,118.981C1181.48,118.981 1192.58,123.754 1200.8,133.301C1209.01,142.848 1213.12,156.947 1213.12,175.597L1213.12,396.069L1315.36,288.83C1328.02,275.509 1337.68,266.406 1344.34,261.521C1351,256.637 1359.1,254.194 1368.65,254.194C1379.97,254.194 1389.41,257.802 1396.96,265.018C1404.51,272.234 1408.28,281.281 1408.28,292.161C1408.28,305.482 1395.96,323.244 1371.31,345.447L1323.02,389.741L1416.27,536.278C1423.16,547.157 1428.1,555.428 1431.09,561.089C1434.09,566.751 1435.59,572.135 1435.59,577.242C1435.59,591.673 1431.65,603.052 1423.77,611.378C1415.88,619.704 1405.51,623.867 1392.63,623.867C1381.53,623.867 1372.98,620.87 1366.98,614.875C1360.99,608.88 1352.88,598.001 1342.67,582.237Z" style="fill:#fffede;fill-rule:nonzero;"/>
        </g>
    </g>
</svg>
