<?xml version="1.0" encoding="UTF-8" standalone="no"?>
<!DOCTYPE svg PUBLIC "-//W3C//DTD SVG 1.1//EN" "http://www.w3.org/Graphics/SVG/1.1/DTD/svg11.dtd">
<svg width="100%" height="100%" viewBox="0 0 120 107" version="1.1" xmlns="http://www.w3.org/2000/svg" xmlns:xlink="http://www.w3.org/1999/xlink" xml:space="preserve" style="fill-rule:evenodd;clip-rule:evenodd;stroke-linejoin:round;stroke-miterlimit:1.41421;">
    <g transform="matrix(1,0,0,1,6.50511,-6.49839)">
        <g transform="matrix(6.12323e-17,1,-1,6.12323e-17,112.503,6.49914)">
            <path d="M105.01,49.711C100.275,17.055 74.621,-3.727 42.823,0.55C16.154,4.139 -1.318,24.874 3.901,48.28C8.892,70.678 25.284,79.45 37.22,75.663C49.824,71.66 53.341,59.854 52.826,44.457C54.386,50.016 58.062,49.53 60.086,45.186C58.334,49.626 60.031,50.867 63.65,49.779C48.812,55.316 47.722,90.911 72.436,87.899C64.959,90.741 48.925,90.015 36.178,83.057C24.081,76.878 11.641,75.758 1.148,79.892C0.216,80.26 -0.241,81.314 0.126,82.25C0.382,82.903 0.975,83.327 1.63,83.391C1.907,83.42 2.196,83.385 2.473,83.277C11.986,79.522 23.373,80.598 34.533,86.296C42.519,90.884 49.67,94.336 56.153,96.447C56.306,96.32 56.465,96.201 56.634,96.089C59.401,94.259 63.206,92.034 68.093,91.086C68.476,91.013 68.844,91.262 68.918,91.644C68.991,92.027 68.742,92.397 68.36,92.47C63.717,93.373 60.069,95.508 57.408,97.268C56.465,97.89 55.822,98.842 55.594,99.95C55.366,101.06 55.583,102.191 56.204,103.136C57.052,104.419 58.522,105.145 60.058,105.033C60.77,104.978 61.462,104.739 62.059,104.341C63.843,103.161 66.25,101.716 69.075,100.999C69.452,100.902 69.835,101.132 69.93,101.51C70.026,101.888 69.798,102.272 69.421,102.368C66.815,103.029 64.63,104.331 62.837,105.518C62.042,106.047 61.118,106.367 60.164,106.441C60.024,106.451 59.885,106.457 59.746,106.457C59.039,106.457 58.348,106.324 57.705,106.073C53.57,109.646 49.043,112.494 43.915,114.519C39.079,116.433 39.137,118.807 44.508,118.965C91.023,120.319 110.85,89.965 105.01,49.711ZM39.241,59.776C38.861,60.924 37.625,61.545 36.479,61.167C35.336,60.784 34.716,59.545 35.097,58.396C35.475,57.25 36.712,56.627 37.857,57.01C38.999,57.392 39.622,58.629 39.241,59.776ZM75.411,54.241C73.157,57.185 70.513,59.148 68.461,60.53C67.636,61.085 66.687,61.373 65.715,61.373C65.393,61.373 65.069,61.341 64.746,61.277C63.45,61.021 62.33,60.275 61.594,59.176C60.592,57.682 60.477,55.757 61.294,54.151C61.681,53.4 62.251,52.758 62.942,52.292C64.238,51.42 65.894,50.212 67.225,48.601C67.473,48.301 67.916,48.259 68.217,48.507C68.516,48.755 68.558,49.2 68.309,49.501C66.864,51.253 65.102,52.539 63.728,53.463C63.225,53.801 62.828,54.25 62.547,54.797C61.964,55.942 62.046,57.32 62.764,58.389C63.29,59.176 64.091,59.709 65.019,59.892C65.948,60.076 66.892,59.887 67.676,59.358C69.638,58.037 72.164,56.163 74.293,53.38C74.53,53.07 74.972,53.012 75.28,53.25C75.589,53.487 75.648,53.931 75.411,54.241Z" style="fill:#fffede;"/>
        </g>
    </g>
</svg>
