<?xml version="1.0" encoding="UTF-8" standalone="no"?>
<!DOCTYPE svg PUBLIC "-//W3C//DTD SVG 1.1//EN" "http://www.w3.org/Graphics/SVG/1.1/DTD/svg11.dtd">
<svg width="100%" height="100%" viewBox="0 0 114 110" version="1.1" xmlns="http://www.w3.org/2000/svg" xmlns:xlink="http://www.w3.org/1999/xlink" xml:space="preserve" style="fill-rule:evenodd;clip-rule:evenodd;stroke-linejoin:round;stroke-miterlimit:1.41421;">
    <g transform="matrix(0.75,0,0,0.75,0,0)">
        <g transform="matrix(6.12323e-17,1,-1,6.12323e-17,151.007,-0.00112437)">
            <path d="M88.28,3.395C88.263,3.389 88.246,3.386 88.229,3.382C66.75,-4.241 43.449,0.254 26.601,24.88C8.201,51.776 22.15,77.078 45.327,92.374C63.583,104.424 82.865,98.76 94.961,89.4C94.957,89.406 94.954,89.413 94.948,89.419C94.955,89.411 94.961,89.404 94.967,89.395C98.57,86.608 101.544,83.496 103.652,80.419C107.07,75.439 109.799,70.429 111.89,65.473C112.069,65.05 112.551,64.842 112.982,65.005L113.035,65.025C113.237,65.101 113.399,65.255 113.484,65.453C113.57,65.651 113.57,65.874 113.487,66.073C111.323,71.229 108.511,76.375 105.071,81.389C102.397,85.287 98.326,89.295 93.316,92.672C89.547,100.556 91.596,114.263 96.587,121.864C86.93,123.239 68.263,117.836 54.946,106.196L54.948,106.192C45.714,98.436 38.581,97.732 31.098,103.842C29.356,105.268 26.707,106.814 23.974,106.13C21.603,105.531 19.574,103.324 18.109,99.756C15.919,94.42 12.621,92.274 10.243,91.412C7.555,90.44 4.524,90.5 1.507,91.553C0.89,91.766 0.397,92.238 0.157,92.845C-0.082,93.453 -0.045,94.134 0.26,94.711L0.3,94.784C0.834,95.797 2.029,96.268 3.113,95.899C4.668,95.369 6.678,95.046 8.663,95.763C10.842,96.553 12.575,98.485 13.82,101.509C16.403,107.804 20.149,109.937 22.837,110.616C23.645,110.821 24.472,110.922 25.31,110.922C28.198,110.922 31.22,109.725 34.035,107.425C38.908,103.445 43.401,102.545 51.956,109.73C51.956,109.733 51.956,109.736 51.957,109.738C56.948,114.296 61.678,118.298 66.213,121.701C66.463,121.445 66.729,121.203 67.021,120.987C68.492,119.891 70.302,119.432 72.117,119.697C79.155,120.724 88.154,123.068 95.338,132.165C95.632,132.535 95.568,133.074 95.196,133.367C94.824,133.659 94.283,133.597 93.991,133.226C87.18,124.605 78.591,122.374 71.869,121.393C70.507,121.195 69.151,121.539 68.047,122.36C66.943,123.182 66.226,124.382 66.028,125.741C65.758,127.587 66.512,129.439 67.999,130.572C68.69,131.098 69.514,131.443 70.382,131.571C75.769,132.358 81.38,133.876 85.898,139.59C86.192,139.962 86.128,140.5 85.756,140.794C85.599,140.918 85.411,140.979 85.225,140.979C84.971,140.979 84.72,140.868 84.551,140.652C82.675,138.281 80.578,136.701 78.377,135.606C75.744,136.644 72.951,137.538 70.013,138.264C59.944,140.747 63.718,149.574 75.094,150.636C117.746,154.604 140.417,126.334 145.51,85.286C150.018,48.959 123.11,14.943 88.28,3.395ZM57.894,82.017C57.349,83.654 55.58,84.539 53.942,84C52.304,83.454 51.417,81.689 51.962,80.051C52.504,78.418 54.274,77.531 55.912,78.075C57.549,78.619 58.439,80.383 57.894,82.017ZM98.816,58.748C98.663,58.861 98.485,58.915 98.308,58.915C98.044,58.915 97.783,58.793 97.616,58.566C97.335,58.184 97.417,57.648 97.799,57.368C100.739,55.209 101.56,52.186 99.839,49.846C98.089,47.474 95.03,47.359 92.044,49.552C91.664,49.832 91.125,49.751 90.844,49.369C90.563,48.988 90.645,48.451 91.027,48.171C95.377,44.977 99.282,46.2 101.222,48.831C103.515,51.948 102.525,56.026 98.816,58.748ZM127.284,84.517C122.996,93.562 115.867,97.279 110.136,99.507C109.42,99.783 108.682,99.915 107.958,99.915C105.537,99.915 103.25,98.454 102.323,96.071C101.529,94.035 101.906,91.723 103.306,90.037C103.958,89.254 104.806,88.645 105.759,88.272C109.824,86.696 113.923,84.524 116.373,79.362C116.577,78.933 117.088,78.75 117.517,78.954C117.945,79.157 118.128,79.668 117.925,80.096C115.217,85.8 110.777,88.165 106.383,89.87C105.701,90.137 105.093,90.574 104.626,91.133C103.625,92.338 103.355,93.993 103.923,95.45C104.785,97.667 107.294,98.769 109.514,97.909C114.947,95.797 121.702,92.284 125.731,83.783C125.934,83.356 126.447,83.173 126.875,83.376C127.303,83.577 127.486,84.09 127.284,84.517Z" style="fill:#fffede;"/>
        </g>
    </g>
</svg>
